HIERARCHY
ROOT hip
{
  OFFSET 0 0 0
  CHANNELS 6 Xposition Yposition Zposition Zrotation Yrotation Xrotation
  JOINT abdomen
  {
    OFFSET 0 20.6881 -0.73152
    CHANNELS 3 Zrotation Xrotation Yrotation
    JOINT chest
    {
      OFFSET 0 11.7043 -0.48768
      CHANNELS 3 Zrotation Xrotation Yrotation
      JOINT neck
      {
        OFFSET 0 22.1894 -2.19456
        CHANNELS 3 Zrotation Xrotation Yrotation
        JOINT head
        {
          OFFSET -0.24384 7.07133 1.2192
          CHANNELS 3 Zrotation Xrotation Yrotation
          JOINT leftEye
          {
            OFFSET 4.14528 8.04674 8.04672
            CHANNELS 3 Zrotation Xrotation Yrotation
            End Site
            {
              OFFSET 1 0 0
            }
          }
          JOINT rightEye
          {
            OFFSET -3.6576 8.04674 8.04672
            CHANNELS 3 Zrotation Xrotation Yrotation
            End Site
            {
              OFFSET 1 0 0
            }
          }
        }
      }
      JOINT rCollar
      {
        OFFSET -2.68224 19.2634 -4.8768
        CHANNELS 3 Zrotation Xrotation Yrotation
        JOINT rShldr
        {
          OFFSET -8.77824 -1.95073 1.46304
          CHANNELS 3 Zrotation Xrotation Yrotation
          JOINT rForeArm
          {
            OFFSET -28.1742 -1.7115 0.48768
            CHANNELS 3 Zrotation Xrotation Yrotation
            JOINT rHand
            {
              OFFSET -22.5879 0.773209 7.07136
              CHANNELS 3 Zrotation Xrotation Yrotation
              JOINT rThumb1
              {
                OFFSET -1.2192 -0.487915 3.41376
                CHANNELS 3 Zrotation Xrotation Yrotation
                JOINT rThumb2
                {
                  OFFSET -3.37035 -0.52449 3.41376
                  CHANNELS 3 Zrotation Xrotation Yrotation
                  End Site
                  {
                    OFFSET -1.78271 -1.18214 1.43049
                  }
                }
              }
              JOINT rIndex1
              {
                OFFSET -7.75947 0.938293 5.60832
                CHANNELS 3 Zrotation Xrotation Yrotation
                JOINT rIndex2
                {
                  OFFSET -2.54057 -0.884171 1.56538
                  CHANNELS 3 Zrotation Xrotation Yrotation
                  End Site
                  {
                    OFFSET -1.62519 -0.234802 1.16502
                  }
                }
              }
              JOINT rMid1
              {
                OFFSET -8.24714 1.18213 3.41376
                CHANNELS 3 Zrotation Xrotation Yrotation
                JOINT rMid2
                {
                  OFFSET -3.10165 -0.590103 1.0647
                  CHANNELS 3 Zrotation Xrotation Yrotation
                  End Site
                  {
                    OFFSET -2.48547 -0.328903 0.83742
                  }
                }
              }
              JOINT rRing1
              {
                OFFSET -8.82822 0.546677 1.51678
                CHANNELS 3 Zrotation Xrotation Yrotation
                JOINT rRing2
                {
                  OFFSET -2.60934 -0.819778 -0.0198488
                  CHANNELS 3 Zrotation Xrotation Yrotation
                  End Site
                  {
                    OFFSET -2.33842 -0.294052 0.168128
                  }
                }
              }
              JOINT rPinky1
              {
                OFFSET -8.27202 -0.0477905 -0.4584
                CHANNELS 3 Zrotation Xrotation Yrotation
                JOINT rPinky2
                {
                  OFFSET -1.82734 -0.647385 -0.700984
                  CHANNELS 3 Zrotation Xrotation Yrotation
                  End Site
                  {
                    OFFSET -1.69225 -0.51767 -0.607171
                  }
                }
              }
            }
          }
        }
      }
      JOINT lCollar
      {
        OFFSET 2.68224 19.2634 -4.8768
        CHANNELS 3 Zrotation Xrotation Yrotation
        JOINT lShldr
        {
          OFFSET 8.77824 -1.95073 1.46304
          CHANNELS 3 Zrotation Xrotation Yrotation
          JOINT lForeArm
          {
            OFFSET 28.1742 -1.7115 0.48768
            CHANNELS 3 Zrotation Xrotation Yrotation
            JOINT lHand
            {
              OFFSET 22.5879 0.773209 7.07136
              CHANNELS 3 Zrotation Xrotation Yrotation
              JOINT lThumb1
              {
                OFFSET 1.2192 -0.487915 3.41376
                CHANNELS 3 Zrotation Xrotation Yrotation
                JOINT lThumb2
                {
                  OFFSET 3.37035 -0.52449 3.41376
                  CHANNELS 3 Zrotation Xrotation Yrotation
                  End Site
                  {
                    OFFSET 1.78271 -1.18214 1.43049
                  }
                }
              }
              JOINT lIndex1
              {
                OFFSET 7.75947 0.938293 5.60832
                CHANNELS 3 Zrotation Xrotation Yrotation
                JOINT lIndex2
                {
                  OFFSET 2.54057 -0.884171 1.56538
                  CHANNELS 3 Zrotation Xrotation Yrotation
                  End Site
                  {
                    OFFSET 1.62519 -0.234802 1.16502
                  }
                }
              }
              JOINT lMid1
              {
                OFFSET 8.24714 1.18213 3.41376
                CHANNELS 3 Zrotation Xrotation Yrotation
                JOINT lMid2
                {
                  OFFSET 3.10165 -0.590103 1.0647
                  CHANNELS 3 Zrotation Xrotation Yrotation
                  End Site
                  {
                    OFFSET 2.48547 -0.328903 0.83742
                  }
                }
              }
              JOINT lRing1
              {
                OFFSET 8.82822 0.546677 1.51678
                CHANNELS 3 Zrotation Xrotation Yrotation
                JOINT lRing2
                {
                  OFFSET 2.60934 -0.819778 -0.0198488
                  CHANNELS 3 Zrotation Xrotation Yrotation
                  End Site
                  {
                    OFFSET 2.33842 -0.294052 0.168128
                  }
                }
              }
              JOINT lPinky1
              {
                OFFSET 8.27202 -0.0477905 -0.4584
                CHANNELS 3 Zrotation Xrotation Yrotation
                JOINT lPinky2
                {
                  OFFSET 1.82734 -0.647385 -0.700984
                  CHANNELS 3 Zrotation Xrotation Yrotation
                  End Site
                  {
                    OFFSET 1.69225 -0.51767 -0.607171
                  }
                }
              }
            }
          }
        }
      }
    }
  }
  JOINT rButtock
  {
    OFFSET -8.77824 4.35084 1.2192
    CHANNELS 3 Zrotation Xrotation Yrotation
    JOINT rThigh
    {
      OFFSET 0 -1.70687 -2.19456
      CHANNELS 3 Zrotation Xrotation Yrotation
      JOINT rShin
      {
        OFFSET 0 -36.8199 0.73152
        CHANNELS 3 Zrotation Xrotation Yrotation
        JOINT rFoot
        {
          OFFSET 0.73152 -45.1104 -5.12064
          CHANNELS 3 Zrotation Xrotation Yrotation
          End Site
          {
            OFFSET -1.1221 -3.69964 12.103
          }
        }
      }
    }
  }
  JOINT lButtock
  {
    OFFSET 8.77824 4.35084 1.2192
    CHANNELS 3 Zrotation Xrotation Yrotation
    JOINT lThigh
    {
      OFFSET 0 -1.70687 -2.19456
      CHANNELS 3 Zrotation Xrotation Yrotation
      JOINT lShin
      {
        OFFSET 0 -36.8199 0.73152
        CHANNELS 3 Zrotation Xrotation Yrotation
        JOINT lFoot
        {
          OFFSET -0.73152 -45.1104 -5.12064
          CHANNELS 3 Zrotation Xrotation Yrotation
          End Site
          {
            OFFSET 1.1221 -3.69964 12.103
          }
        }
      }
    }
  }
}
MOTION
Frames:	7
Frame Time:	0.00833333
1.49518 67.557106 -96.7173 4.777 14.650201 6.067 -6.1279197 21.4474 1.1216202 3.9566698 -12.5715 0.49636203 -5.9792004 17.9371 -6.6249104 9.0182495 -40.7635 -10.4111 0.0 0.0 0.0 0.0 0.0 0.0 1.05303e-13 -1.89617e-13 -9.9036705e-14 42.1632 7.3770003 35.527203 -25.278801 -21.707703 53.955105 -1.0917801 28.262999 4.3334503 3.67568e-10 6.78386e-09 1.19383e-09 6.6234795e-10 1.17588e-08 2.04657e-09 3.6756698e-10 6.78386e-09 1.19383e-09 7.730911 5.47488 0.41731405 3.67569e-10 6.78386e-09 1.19384e-09 2.90554 0.965183 0.102902 3.67573e-10 6.7838797e-09 1.19384e-09 10.2786 0.73180103 0.025912303 3.67564e-10 6.78386e-09 1.19384e-09 2.2216702 -0.733487 -0.20892 1.0513999e-13 -1.8961601e-13 -9.91446e-14 -30.2779 59.233997 -61.731197 28.315798 -33.194202 -72.4528 34.962082 -78.2217 42.354504 1.84272e-09 6.83323e-09 -2.98524e-10 3.16639e-09 1.20807e-08 -3.95909e-10 1.8427301e-09 6.83323e-09 -2.9851e-10 -7.730911 5.47488 -0.41731405 1.84272e-09 6.83323e-09 -2.98532e-10 -2.90554 0.965183 -0.102902 1.84272e-09 6.83323e-09 -2.98533e-10 -10.2786 0.73180103 -0.025912303 1.8427301e-09 6.83323e-09 -2.98539e-10 -2.2216702 -0.733487 0.20892 -2.03217e-16 8e-44 -3.88251e-19 -19.848202 -64.2283 0.19796705 -0.41344705 40.5396 0.28368694 -0.358027 -6.2389 -0.051736496 2.03217e-16 8e-44 3.88251e-19 -10.897902 -45.348103 -7.689061 3.73283 77.3739 -4.34107 4.5331697 2.3667397 29.775599
1.7474902 67.550705 -98.711006 3.6650002 10.8859 6.0350003 -5.66923 21.4644 1.89774 3.7047498 -12.646099 0.707414 -5.5754695 17.675098 -5.670259 8.64226 -40.972 -8.55604 0.0 0.0 0.0 0.0 0.0 0.0 -6.0871e-14 9.64848e-14 -4.0271e-14 42.034397 9.644329 37.3338 -24.9074 -20.898499 52.622597 -0.9546988 26.614 4.0378203 -8.43923e-10 -1.9614701e-08 -1.0118799e-09 -1.47904e-09 -3.39997e-08 -1.7311399e-09 -8.4391905e-10 -1.9614701e-08 -1.01189e-09 7.730911 5.47488 0.41731405 -8.4392204e-10 -1.9614701e-08 -1.0118799e-09 2.90554 0.965183 0.102902 -8.4391905e-10 -1.9614701e-08 -1.0118799e-09 10.2786 0.73180103 0.025912303 -8.43932e-10 -1.9614701e-08 -1.01187e-09 2.2216702 -0.733487 -0.20892 -6.0931e-14 9.6485e-14 -4.04426e-14 -27.233898 56.5895 -66.4256 28.250603 -32.538902 -71.411 27.740097 -76.2212 34.950592 -7.74247e-10 -1.22447e-09 -1.85687e-10 -1.31345e-09 -2.15172e-09 -3.5988199e-10 -7.74244e-10 -1.22447e-09 -1.85678e-10 -7.730911 5.47488 -0.41731405 -7.74248e-10 -1.22447e-09 -1.85697e-10 -2.90554 0.965183 -0.102902 -7.74258e-10 -1.22448e-09 -1.85698e-10 -10.2786 0.73180103 -0.025912303 -7.74246e-10 -1.22447e-09 -1.85696e-10 -2.2216702 -0.733487 0.20892 -2.03217e-16 8e-44 -3.88251e-19 -18.9243 -65.7893 -5.694269 -0.41934294 40.963497 0.331239 -0.49742296 -7.5805993 -0.68991697 2.03217e-16 8e-44 3.88251e-19 -8.4703 -46.606 -3.5252104 3.383979 76.4976 -4.07846 5.61961 1.32955 32.797596
1.9004301 67.4307 -100.66 2.3439999 7.1104994 5.876 -5.4212503 21.622599 2.6671798 3.3628902 -12.3962 0.8953729 -5.2296 17.3687 -4.76208 8.681581 -41.203804 -6.63845 0.0 0.0 0.0 0.0 0.0 0.0 -1.00139e-13 2.1867599e-13 1.4109e-15 41.4461 12.169202 39.607 -24.500898 -20.0655 51.2244 -0.92947906 26.264399 3.97733 -1.42278e-09 -2.9050998e-08 -2.0511e-09 -2.5017701e-09 -5.04976e-08 -3.51033e-09 -1.42277e-09 -2.9050998e-08 -2.0511102e-09 7.730911 5.47488 0.41731405 -1.42278e-09 -2.9050998e-08 -2.0511102e-09 2.90554 0.965183 0.102902 -1.42277e-09 -2.9050998e-08 -2.0511e-09 10.2786 0.73180103 0.025912303 -1.42279e-09 -2.9051101e-08 -2.05109e-09 2.2216702 -0.733487 -0.20892 -1.00127e-13 2.18675e-13 1.19737e-15 -21.484303 53.316097 -73.5725 28.3357 -33.1928 -72.3146 24.249294 -74.8665 31.343107 -1.2964201e-09 -4.00356e-09 -2.54583e-10 -2.2003201e-09 -7.02685e-09 -5.1049703e-10 -1.2964201e-09 -4.00355e-09 -2.54578e-10 -7.730911 5.47488 -0.41731405 -1.2964201e-09 -4.00356e-09 -2.5459101e-10 -2.90554 0.965183 -0.102902 -1.29644e-09 -4.00357e-09 -2.5459101e-10 -10.2786 0.73180103 -0.025912303 -1.2964201e-09 -4.00355e-09 -2.5458602e-10 -2.2216702 -0.733487 0.20892 -2.03217e-16 8e-44 -3.88251e-19 -19.3769 -67.2651 -13.566197 -0.47153807 43.690502 0.45892203 -0.9090859 -7.17483 -2.4800901 2.03217e-16 8e-44 3.88251e-19 -5.2182903 -48.1396 1.2336303 3.334451 76.48231 -4.1062417 6.23252 0.858875 34.6034
2.02178 67.0941 -102.59901 1.31 3.5981998 5.6679997 -5.3901305 21.921701 3.43227 2.9281304 -11.8219 1.05968 -4.94036 17.0188 -3.90075 9.1421 -41.456398 -4.6547604 0.0 0.0 0.0 0.0 0.0 0.0 -1.25007e-14 1.76957e-13 2.6009e-14 40.2965 14.8542 42.4076 -24.0541 -19.2015 49.7604 -1.00664 27.215 4.1459503 -1.369e-09 -2.15251e-08 -1.92383e-09 -2.4058502e-09 -3.77349e-08 -3.29101e-09 -1.36899e-09 -2.15251e-08 -1.92384e-09 7.730911 5.47488 0.41731405 -1.369e-09 -2.15251e-08 -1.92384e-09 2.90554 0.965183 0.102902 -1.36899e-09 -2.15251e-08 -1.92383e-09 10.2786 0.73180103 0.025912303 -1.369e-09 -2.15251e-08 -1.92383e-09 2.2216702 -0.733487 -0.20892 -1.24472e-14 1.76955e-13 2.57752e-14 -14.030601 48.7636 -81.8324 28.4163 -35.0057 -75.3767 23.007399 -74.2906 30.051407 2.7619498e-10 -1.50402e-09 -5.0521304e-10 5.05772e-10 -2.54469e-09 -8.47753e-10 2.76194e-10 -1.50402e-09 -5.0521e-10 -7.730911 5.47488 -0.41731405 2.76194e-10 -1.50402e-09 -5.0521504e-10 -2.90554 0.965183 -0.102902 2.76188e-10 -1.50403e-09 -5.05212e-10 -10.2786 0.73180103 -0.025912303 2.76202e-10 -1.50402e-09 -5.0521e-10 -2.2216702 -0.733487 0.20892 -2.03217e-16 8e-44 -3.88251e-19 -21.544502 -68.37891 -23.713005 -0.61089194 48.7201 0.69834495 -1.40452 -5.0176597 -5.4025106 2.03217e-16 8e-44 3.88251e-19 -0.93983227 -49.869293 6.738128 3.588871 77.3278 -4.4288783 6.29247 0.9086748 35.1866
2.23864 66.644104 -104.49899 0.9870002 0.42830008 5.4640007 -6.4595604 22.3565 4.1262803 3.0471497 -12.162798 1.2318296 -4.8463106 16.772602 -3.0326905 9.512159 -41.3458 -2.71634 0.0 0.0 0.0 0.0 0.0 0.0 2.28938e-15 1.02959e-13 5.8902e-14 38.166496 18.474297 45.202297 -23.780201 -18.6897 48.938 -0.910801 26.1094 3.94721 -1.02391e-09 -1.33482e-08 -1.32621e-09 -1.79736e-09 -2.3548301e-08 -2.26692e-09 -1.0239e-09 -1.33480995e-08 -1.32621e-09 7.730911 5.47488 0.41731405 -1.02391e-09 -1.33482e-08 -1.32621e-09 2.90554 0.965183 0.102902 -1.02391e-09 -1.33482e-08 -1.32621e-09 10.2786 0.73180103 0.025912303 -1.0239201e-09 -1.33480995e-08 -1.3261999e-09 2.2216702 -0.733487 -0.20892 2.30418e-15 1.02958e-13 5.8625203e-14 -7.1626716 43.493702 -90.3012 28.421 -37.252 -78.9764 17.153303 -70.9135 23.926497 8.5980106e-10 -2.41611e-10 -5.46653e-10 1.50546e-09 -3.03557e-10 -8.85912e-10 8.5979796e-10 -2.41612e-10 -5.46648e-10 -7.730911 5.47488 -0.41731405 8.5980106e-10 -2.41613e-10 -5.46652e-10 -2.90554 0.965183 -0.102902 8.5979796e-10 -2.4161398e-10 -5.46651e-10 -10.2786 0.73180103 -0.025912303 8.59809e-10 -2.41613e-10 -5.46654e-10 -2.2216702 -0.733487 0.20892 -2.03217e-16 8e-44 -3.88251e-19 -24.665699 -69.546196 -31.713005 -0.87244594 55.8741 1.0804701 -1.65745 -3.8842397 -7.0507894 2.03217e-16 8e-44 3.88251e-19 3.0690403 -51.7739 12.746699 4.002063 78.463806 -4.90537 6.44008 0.7533301 35.4596
2.52496 66.0366 -106.442 1.175 -2.6147 5.5879993 -8.63316 22.927599 4.7509303 3.7285597 -13.4186 1.4140501 -4.95239 16.630499 -2.1563401 9.74592 -40.874004 -0.8541793 0.0 0.0 0.0 0.0 0.0 0.0 -5.5768504e-14 -3.31916e-15 1.00089994e-13 34.896698 22.954 48.2682 -23.7181 -18.5789 48.735405 -0.6879389 22.9443 3.40883 -3.87521e-10 -4.52014e-09 -2.5822e-10 -6.76287e-10 -7.938e-09 -4.38044e-10 -3.8751802e-10 -4.5201602e-09 -2.58224e-10 7.730911 5.47488 0.41731405 -3.87521e-10 -4.52015e-09 -2.58221e-10 2.90554 0.965183 0.102902 -3.87517e-10 -4.52015e-09 -2.58218e-10 10.2786 0.73180103 0.025912303 -3.87531e-10 -4.52013e-09 -2.5821198e-10 2.2216702 -0.733487 -0.20892 -5.58726e-14 -3.31527e-15 9.97472e-14 -1.4223512 36.992496 -97.9094 28.137997 -39.8224 -83.457794 10.816799 -64.39639 17.074 4.5439402e-10 -2.16325e-10 -3.78904e-10 7.98741e-10 -3.03437e-10 -6.2497396e-10 4.54391e-10 -2.1632401e-10 -3.78894e-10 -7.730911 5.47488 -0.41731405 4.5439602e-10 -2.16325e-10 -3.78901e-10 -2.90554 0.965183 -0.102902 4.5439402e-10 -2.16326e-10 -3.78909e-10 -10.2786 0.73180103 -0.025912303 4.54399e-10 -2.1632401e-10 -3.78919e-10 -2.2216702 -0.733487 0.20892 -2.03217e-16 8e-44 -3.88251e-19 -28.757696 -71.1364 -37.655304 -1.4891002 65.1502 1.82798 -1.8313102 -3.7710402 -7.4351497 2.03217e-16 8e-44 3.88251e-19 7.042532 -53.7615 19.449902 4.6675115 79.8895 -5.629209 6.6758194 0.39327535 35.4237
2.82404 65.3449 -108.379 1.329 -5.6411996 5.738 -10.045599 23.167099 5.3561797 3.7747703 -14.089299 1.5388399 -4.9867907 16.429003 -1.3519301 10.193101 -40.6466 0.96000326 0.0 0.0 0.0 0.0 0.0 0.0 -6.18039e-14 -7.40996e-14 1.23399e-13 31.4227 26.844 52.076206 -23.709597 -18.564398 48.704197 -0.53911597 20.371998 2.99221 1.73047e-10 1.11161e-09 1.56213e-10 3.0173702e-10 1.97051e-09 2.65204e-10 1.7305e-10 1.11158e-09 1.56209e-10 7.730911 5.47488 0.41731405 1.73047e-10 1.11161e-09 1.56212e-10 2.90554 0.965183 0.102902 1.73051e-10 1.11161e-09 1.56216e-10 10.2786 0.73180103 0.025912303 1.73039e-10 1.11161e-09 1.5622299e-10 2.2216702 -0.733487 -0.20892 -6.1916895e-14 -7.4094404e-14 1.2308301e-13 3.4095426 29.228899 -105.149994 27.625399 -42.051697 -87.7041 6.4045715 -56.0741 12.0291 3.61876e-10 -9.94524e-11 -2.1661699e-10 6.33084e-10 -1.36576e-10 -3.58292e-10 3.61868e-10 -9.94543e-11 -2.1660099e-10 -7.730911 5.47488 -0.41731405 3.61877e-10 -9.94553e-11 -2.16615e-10 -2.90554 0.965183 -0.102902 3.61874e-10 -9.94557e-11 -2.16625e-10 -10.2786 0.73180103 -0.025912303 3.61881e-10 -9.94538e-11 -2.16637e-10 -2.2216702 -0.733487 0.20892 -2.03217e-16 8e-44 -3.88251e-19 -31.920296 -72.0365 -41.8718 -2.8834002 74.2958 3.3129394 -1.9717302 -4.4858704 -7.2282205 2.03217e-16 8e-44 3.88251e-19 11.760399 -55.4108 26.3921 5.4414625 81.092804 -6.406182 7.01078 0.013018981 35.7297
